<?xml version="1.0" standalone="no"?><svg xmlns:xlink="http://www.w3.org/1999/xlink" xmlns="http://www.w3.org/2000/svg" viewBox="0 0 1000 583.3404377895066" preserveAspectRatio="xMaxYMax slice"><g transform="scale(1.291719304228314)"><rect x="0" y="0" width="774.1714285714286" height="451.6" fill="#ffffff"/><rect x="0" y="0" width="64.51428571428572" height="64.51428571428572" fill="#ffffff"/><rect x="0" y="0" width="32.26" height="32.26" fill="#3F3D56"/><polygon points="32.26,0 32.26,32.26 0,32.26" fill="#3F3D56"/><rect x="32.26" y="0" width="32.26" height="32.26" fill="#3F3D56"/><polygon points="32.26,0 64.52,0 32.26,32.26" fill="#3F3D56"/><rect x="0" y="32.26" width="32.26" height="32.26" fill="#3F3D56"/><polygon points="0,32.26 32.26,32.26 32.26,64.52" fill="#6C63FF"/><rect x="32.26" y="32.26" width="32.26" height="32.26" fill="#3F3D56"/><polygon points="32.26,32.26 64.52,64.52 32.26,64.52" fill="#3F3D56"/><rect x="64.51" y="0" width="64.51" height="64.51" fill="#3F3D56"/><path d="M 64.51 0 A 64.51 64.51 0 0 0 129.02 64.51 L 129.02 0" fill="#6C63FF"/><rect x="129.03" y="0" width="64.51" height="64.51" fill="#6C63FF"/><polygon points="129.03,0 193.54000000000002,0 193.54000000000002,64.51" fill="#6C63FF"/><rect x="193.54" y="0" width="64.51" height="64.51" fill="#3F3D56"/><rect x="193.54" y="0" width="64.51" height="64.51" fill="#6C63FF"/><rect x="258.0571428571429" y="0" width="64.51428571428572" height="64.51428571428572" fill="#ffffff"/><rect x="258.06" y="0" width="32.26" height="32.26" fill="#6C63FF"/><polygon points="290.32,0 290.32,32.26 258.06,32.26" fill="#3F3D56"/><rect x="290.31" y="0" width="32.26" height="32.26" fill="#3F3D56"/><polygon points="290.31,0 322.57,32.26 290.31,32.26" fill="#6C63FF"/><rect x="258.06" y="32.26" width="32.26" height="32.26" fill="#3F3D56"/><polygon points="258.06,32.26 290.32,32.26 290.32,64.52" fill="#6C63FF"/><rect x="290.31" y="32.26" width="32.26" height="32.26" fill="#3F3D56"/><polygon points="290.31,32.26 322.57,32.26 290.31,64.52" fill="#6C63FF"/><rect x="322.5714285714286" y="0" width="64.51428571428572" height="64.51428571428572" fill="#ffffff"/><rect x="322.57" y="0" width="32.26" height="32.26" fill="#3F3D56"/><path d="M 322.57 32.26 A 32.26 32.26 0 0 0 354.83 0 L 322.57 0" fill="#6C63FF"/><rect x="354.83" y="0" width="32.26" height="32.26" fill="#6C63FF"/><path d="M 354.83 0 A 32.26 32.26 0 0 0 387.09 32.26 L 387.09 0" fill="#3F3D56"/><rect x="322.57" y="32.26" width="32.26" height="32.26" fill="#6C63FF"/><path d="M 322.57 32.26 A 32.26 32.26 0 0 1 354.83 64.52 L 322.57 64.52" fill="#6C63FF"/><rect x="354.83" y="32.26" width="32.26" height="32.26" fill="#6C63FF"/><path d="M 354.83 64.52 A 32.26 32.26 0 0 1  387.09 32.26 L 387.09 64.52" fill="#3F3D56"/><rect x="387.0857142857143" y="0" width="64.51428571428572" height="64.51428571428572" fill="#ffffff"/><rect x="387.09" y="0" width="32.26" height="32.26" fill="#6C63FF"/><circle cx="403.21999999999997" cy="16.13" r="16.13" fill="#6C63FF"/><rect x="419.34" y="0" width="32.26" height="32.26" fill="#3F3D56"/><rect x="419.34" y="0" width="32.26" height="32.26" fill="#6C63FF"/><rect x="387.09" y="32.26" width="32.26" height="32.26" fill="#3F3D56"/><circle cx="403.21999999999997" cy="48.39" r="16.13" fill="#3F3D56"/><rect x="419.34" y="32.26" width="32.26" height="32.26" fill="#3F3D56"/><rect x="419.34" y="32.26" width="32.26" height="32.26" fill="#6C63FF"/><rect x="451.6" y="0" width="64.51" height="64.51" fill="#3F3D56"/><rect x="451.6" y="0" width="64.51" height="64.51" fill="#3F3D56"/><rect x="516.11" y="0" width="64.51" height="64.51" fill="#6C63FF"/><rect x="516.11" y="0" width="64.51" height="64.51" fill="#6C63FF"/><rect x="580.63" y="0" width="64.51" height="64.51" fill="#6C63FF"/><path d="M 580.63 64.51 A 64.51 64.51 0 0 1  645.14 0 L 645.14 64.51" fill="#3F3D56"/><rect x="645.14" y="0" width="64.51" height="64.51" fill="#6C63FF"/><rect x="645.14" y="0" width="64.51" height="64.51" fill="#3F3D56"/><rect x="709.657142857143" y="0" width="64.51428571428572" height="64.51428571428572" fill="#ffffff"/><rect x="709.66" y="0" width="32.26" height="32.26" fill="#3F3D56"/><path d="M 709.66 32.26 A 32.26 32.26 0 0 0 741.92 0 L 709.66 0" fill="#3F3D56"/><rect x="741.91" y="0" width="32.26" height="32.26" fill="#6C63FF"/><path d="M 741.91 0 A 32.26 32.26 0 0 0 774.17 32.26 L 774.17 0" fill="#6C63FF"/><rect x="709.66" y="32.26" width="32.26" height="32.26" fill="#6C63FF"/><path d="M 709.66 32.26 A 32.26 32.26 0 0 1 741.92 64.52 L 709.66 64.52" fill="#6C63FF"/><rect x="741.91" y="32.26" width="32.26" height="32.26" fill="#6C63FF"/><path d="M 741.91 64.52 A 32.26 32.26 0 0 1  774.17 32.26 L 774.17 64.52" fill="#3F3D56"/><rect x="0" y="64.51428571428572" width="64.51428571428572" height="64.51428571428572" fill="#ffffff"/><rect x="0" y="64.51" width="32.26" height="32.26" fill="#6C63FF"/><polygon points="32.26,64.51 32.26,96.77000000000001 0,96.77000000000001" fill="#6C63FF"/><rect x="32.26" y="64.51" width="32.26" height="32.26" fill="#6C63FF"/><polygon points="32.26,64.51 64.52,96.77000000000001 32.26,96.77000000000001" fill="#6C63FF"/><rect x="0" y="96.77" width="32.26" height="32.26" fill="#3F3D56"/><polygon points="0,96.77 32.26,96.77 32.26,129.03" fill="#3F3D56"/><rect x="32.26" y="96.77" width="32.26" height="32.26" fill="#3F3D56"/><polygon points="32.26,96.77 64.52,96.77 32.26,129.03" fill="#6C63FF"/><rect x="64.51" y="64.51" width="64.51" height="64.51" fill="#6C63FF"/><polygon points="129.02,64.51 129.02,129.02 64.51,129.02" fill="#6C63FF"/><rect x="129.02857142857144" y="64.51428571428572" width="64.51428571428572" height="64.51428571428572" fill="#ffffff"/><rect x="129.03" y="64.51" width="32.26" height="32.26" fill="#3F3D56"/><path d="M 129.03 64.51 A 32.26 32.26 0 0 1 161.29 96.77000000000001 L 129.03 96.77000000000001" fill="#6C63FF"/><rect x="161.29" y="64.51" width="32.26" height="32.26" fill="#3F3D56"/><path d="M 161.29 96.77000000000001 A 32.26 32.26 0 0 1  193.54999999999998 64.51 L 193.54999999999998 96.77000000000001" fill="#3F3D56"/><rect x="129.03" y="96.77" width="32.26" height="32.26" fill="#6C63FF"/><path d="M 129.03 129.03 A 32.26 32.26 0 0 0 161.29 96.77 L 129.03 96.77" fill="#3F3D56"/><rect x="161.29" y="96.77" width="32.26" height="32.26" fill="#3F3D56"/><path d="M 161.29 96.77 A 32.26 32.26 0 0 0 193.54999999999998 129.03 L 193.54999999999998 96.77" fill="#6C63FF"/><rect x="193.54285714285714" y="64.51428571428572" width="64.51428571428572" height="64.51428571428572" fill="#ffffff"/><rect x="193.54" y="64.51" width="32.26" height="32.26" fill="#3F3D56"/><path d="M 193.54 64.51 A 32.26 32.26 0 0 0 225.79999999999998 96.77000000000001 L 225.79999999999998 64.51" fill="#6C63FF"/><rect x="225.8" y="64.51" width="32.26" height="32.26" fill="#3F3D56"/><path d="M 225.8 96.77000000000001 A 32.26 32.26 0 0 0 258.06 64.51 L 225.8 64.51" fill="#3F3D56"/><rect x="193.54" y="96.77" width="32.26" height="32.26" fill="#3F3D56"/><path d="M 193.54 129.03 A 32.26 32.26 0 0 1  225.79999999999998 96.77 L 225.79999999999998 129.03" fill="#6C63FF"/><rect x="225.8" y="96.77" width="32.26" height="32.26" fill="#6C63FF"/><path d="M 225.8 96.77 A 32.26 32.26 0 0 1 258.06 129.03 L 225.8 129.03" fill="#6C63FF"/><rect x="258.06" y="64.51" width="64.51" height="64.51" fill="#3F3D56"/><path d="M 258.06 129.02 A 64.51 64.51 0 0 0 322.57 64.51 L 258.06 64.51" fill="#6C63FF"/><rect x="322.5714285714286" y="64.51428571428572" width="64.51428571428572" height="64.51428571428572" fill="#ffffff"/><rect x="322.57" y="64.51" width="32.26" height="32.26" fill="#6C63FF"/><circle cx="338.7" cy="80.64" r="16.13" fill="#6C63FF"/><rect x="354.83" y="64.51" width="32.26" height="32.26" fill="#6C63FF"/><rect x="354.83" y="64.51" width="32.26" height="32.26" fill="#3F3D56"/><rect x="322.57" y="96.77" width="32.26" height="32.26" fill="#3F3D56"/><circle cx="338.7" cy="112.89999999999999" r="16.13" fill="#3F3D56"/><rect x="354.83" y="96.77" width="32.26" height="32.26" fill="#6C63FF"/><rect x="354.83" y="96.77" width="32.26" height="32.26" fill="#6C63FF"/><rect x="387.0857142857143" y="64.51428571428572" width="64.51428571428572" height="64.51428571428572" fill="#ffffff"/><rect x="387.09" y="64.51" width="32.26" height="32.26" fill="#3F3D56"/><path d="M 387.09 64.51 A 32.26 32.26 0 0 0 419.34999999999997 96.77000000000001 L 419.34999999999997 64.51" fill="#6C63FF"/><rect x="419.34" y="64.51" width="32.26" height="32.26" fill="#3F3D56"/><path d="M 419.34 96.77000000000001 A 32.26 32.26 0 0 0 451.59999999999997 64.51 L 419.34 64.51" fill="#3F3D56"/><rect x="387.09" y="96.77" width="32.26" height="32.26" fill="#3F3D56"/><path d="M 387.09 129.03 A 32.26 32.26 0 0 1  419.34999999999997 96.77 L 419.34999999999997 129.03" fill="#3F3D56"/><rect x="419.34" y="96.77" width="32.26" height="32.26" fill="#3F3D56"/><path d="M 419.34 96.77 A 32.26 32.26 0 0 1 451.59999999999997 129.03 L 419.34 129.03" fill="#6C63FF"/><rect x="451.6" y="64.51428571428572" width="64.51428571428572" height="64.51428571428572" fill="#ffffff"/><rect x="451.6" y="64.51" width="32.26" height="32.26" fill="#6C63FF"/><path d="M 451.6 96.77000000000001 A 32.26 32.26 0 0 1 483.86 64.51 L 483.86 72.575 A 24.195 24.195 0 0 0 459.665 96.77000000000001" fill="#3F3D56"/><rect x="483.86" y="64.51" width="32.26" height="32.26" fill="#3F3D56"/><path d="M 483.86 64.51 A 32.26 32.26 0 0 1 516.12 96.77000000000001 L 508.055 96.77000000000001 A 24.195 24.195 0 0 0 483.86 72.575" fill="#6C63FF"/><rect x="451.6" y="96.77" width="32.26" height="32.26" fill="#3F3D56"/><path d="M 451.6 96.77 A 32.26 32.26 0 0 0 483.86 129.03 L 483.86 120.965 A 24.195 24.195 0 0 1 459.665 96.77" fill="#3F3D56"/><rect x="483.86" y="96.77" width="32.26" height="32.26" fill="#3F3D56"/><path d="M 483.86 129.03 A 32.26 32.26 0 0 0 516.12 96.77 L 508.055 96.77 A 24.195 24.195 0 0 1 483.86 120.965" fill="#3F3D56"/><rect x="516.1142857142858" y="64.51428571428572" width="64.51428571428572" height="64.51428571428572" fill="#ffffff"/><rect x="516.11" y="64.51" width="32.26" height="32.26" fill="#3F3D56"/><path d="M 516.11 96.77000000000001 A 32.26 32.26 0 0 1 548.37 64.51 L 548.37 72.575 A 24.195 24.195 0 0 0 524.1750000000001 96.77000000000001" fill="#3F3D56"/><rect x="548.37" y="64.51" width="32.26" height="32.26" fill="#3F3D56"/><path d="M 548.37 64.51 A 32.26 32.26 0 0 1 580.63 96.77000000000001 L 572.565 96.77000000000001 A 24.195 24.195 0 0 0 548.37 72.575" fill="#6C63FF"/><rect x="516.11" y="96.77" width="32.26" height="32.26" fill="#3F3D56"/><path d="M 516.11 96.77 A 32.26 32.26 0 0 0 548.37 129.03 L 548.37 120.965 A 24.195 24.195 0 0 1 524.1750000000001 96.77" fill="#6C63FF"/><rect x="548.37" y="96.77" width="32.26" height="32.26" fill="#3F3D56"/><path d="M 548.37 129.03 A 32.26 32.26 0 0 0 580.63 96.77 L 572.565 96.77 A 24.195 24.195 0 0 1 548.37 120.965" fill="#6C63FF"/><rect x="580.6285714285715" y="64.51428571428572" width="64.51428571428572" height="64.51428571428572" fill="#ffffff"/><rect x="580.63" y="64.51" width="32.26" height="32.26" fill="#3F3D56"/><path d="M 580.63 96.77000000000001 A 32.26 32.26 0 0 0 612.89 64.51 L 580.63 64.51" fill="#3F3D56"/><rect x="612.89" y="64.51" width="32.26" height="32.26" fill="#3F3D56"/><path d="M 612.89 64.51 A 32.26 32.26 0 0 0 645.15 96.77000000000001 L 645.15 64.51" fill="#6C63FF"/><rect x="580.63" y="96.77" width="32.26" height="32.26" fill="#6C63FF"/><path d="M 580.63 96.77 A 32.26 32.26 0 0 1 612.89 129.03 L 580.63 129.03" fill="#6C63FF"/><rect x="612.89" y="96.77" width="32.26" height="32.26" fill="#3F3D56"/><path d="M 612.89 129.03 A 32.26 32.26 0 0 1  645.15 96.77 L 645.15 129.03" fill="#6C63FF"/><rect x="645.14" y="64.51" width="64.51" height="64.51" fill="#3F3D56"/><path d="M 645.14 129.02 A 64.51 64.51 0 0 1  709.65 64.51 L 645.14 129.02 A 64.51 64.51 0 0 0 709.65 64.51" fill="#3F3D56"/><rect x="709.66" y="64.51" width="64.51" height="64.51" fill="#3F3D56"/><path d="M 709.66 129.02 A 64.51 64.51 0 0 1  774.17 64.51 L 709.66 129.02 A 64.51 64.51 0 0 0 774.17 64.51" fill="#3F3D56"/><rect x="0" y="129.03" width="64.51" height="64.51" fill="#3F3D56"/><rect x="0" y="129.03" width="64.51" height="64.51" fill="#6C63FF"/><rect x="64.51" y="129.03" width="64.51" height="64.51" fill="#3F3D56"/><rect x="64.51" y="129.03" width="64.51" height="64.51" fill="#3F3D56"/><rect x="129.02857142857144" y="129.02857142857144" width="64.51428571428572" height="64.51428571428572" fill="#ffffff"/><rect x="129.03" y="129.03" width="32.26" height="32.26" fill="#6C63FF"/><circle cx="145.16" cy="145.16" r="16.13" fill="#6C63FF"/><rect x="161.29" y="129.03" width="32.26" height="32.26" fill="#3F3D56"/><rect x="161.29" y="129.03" width="32.26" height="32.26" fill="#6C63FF"/><rect x="129.03" y="161.29" width="32.26" height="32.26" fill="#6C63FF"/><circle cx="145.16" cy="177.42" r="16.13" fill="#3F3D56"/><rect x="161.29" y="161.29" width="32.26" height="32.26" fill="#6C63FF"/><rect x="161.29" y="161.29" width="32.26" height="32.26" fill="#6C63FF"/><rect x="193.54285714285714" y="129.02857142857144" width="64.51428571428572" height="64.51428571428572" fill="#ffffff"/><rect x="193.54" y="129.03" width="32.26" height="32.26" fill="#6C63FF"/><path d="M 193.54 161.29 A 32.26 32.26 0 0 1 225.79999999999998 129.03 L 225.79999999999998 137.095 A 24.195 24.195 0 0 0 201.605 161.29" fill="#3F3D56"/><rect x="225.8" y="129.03" width="32.26" height="32.26" fill="#3F3D56"/><path d="M 225.8 129.03 A 32.26 32.26 0 0 1 258.06 161.29 L 249.995 161.29 A 24.195 24.195 0 0 0 225.8 137.095" fill="#3F3D56"/><rect x="193.54" y="161.29" width="32.26" height="32.26" fill="#3F3D56"/><path d="M 193.54 161.29 A 32.26 32.26 0 0 0 225.79999999999998 193.54999999999998 L 225.79999999999998 185.48499999999999 A 24.195 24.195 0 0 1 201.605 161.29" fill="#3F3D56"/><rect x="225.8" y="161.29" width="32.26" height="32.26" fill="#6C63FF"/><path d="M 225.8 193.54999999999998 A 32.26 32.26 0 0 0 258.06 161.29 L 249.995 161.29 A 24.195 24.195 0 0 1 225.8 185.48499999999999" fill="#6C63FF"/><rect x="258.06" y="129.03" width="64.51" height="64.51" fill="#3F3D56"/><path d="M 258.06 193.54000000000002 A 64.51 64.51 0 0 1  322.57 129.03 L 258.06 193.54000000000002 A 64.51 64.51 0 0 0 322.57 129.03" fill="#6C63FF"/><rect x="322.5714285714286" y="129.02857142857144" width="64.51428571428572" height="64.51428571428572" fill="#ffffff"/><rect x="322.57" y="129.03" width="32.26" height="32.26" fill="#3F3D56"/><polygon points="354.83,129.03 354.83,161.29 322.57,161.29" fill="#3F3D56"/><rect x="354.83" y="129.03" width="32.26" height="32.26" fill="#3F3D56"/><polygon points="354.83,129.03 387.09,161.29 354.83,161.29" fill="#3F3D56"/><rect x="322.57" y="161.29" width="32.26" height="32.26" fill="#3F3D56"/><polygon points="322.57,161.29 354.83,161.29 322.57,193.54999999999998" fill="#6C63FF"/><rect x="354.83" y="161.29" width="32.26" height="32.26" fill="#6C63FF"/><polygon points="354.83,161.29 387.09,161.29 387.09,193.54999999999998" fill="#3F3D56"/><rect x="387.09" y="129.03" width="64.51" height="64.51" fill="#3F3D56"/><polygon points="387.09,129.03 451.59999999999997,129.03 387.09,193.54000000000002" fill="#3F3D56"/><rect x="451.6" y="129.03" width="64.51" height="64.51" fill="#6C63FF"/><polygon points="516.11,129.03 516.11,193.54000000000002 451.6,193.54000000000002" fill="#3F3D56"/><rect x="516.11" y="129.03" width="64.51" height="64.51" fill="#3F3D56"/><rect x="516.11" y="129.03" width="64.51" height="64.51" fill="#3F3D56"/><rect x="580.6285714285715" y="129.02857142857144" width="64.51428571428572" height="64.51428571428572" fill="#ffffff"/><rect x="580.63" y="129.03" width="32.26" height="32.26" fill="#6C63FF"/><circle cx="596.76" cy="145.16" r="16.13" fill="#3F3D56"/><rect x="612.89" y="129.03" width="32.26" height="32.26" fill="#6C63FF"/><rect x="612.89" y="129.03" width="32.26" height="32.26" fill="#6C63FF"/><rect x="580.63" y="161.29" width="32.26" height="32.26" fill="#3F3D56"/><circle cx="596.76" cy="177.42" r="16.13" fill="#6C63FF"/><rect x="612.89" y="161.29" width="32.26" height="32.26" fill="#3F3D56"/><rect x="612.89" y="161.29" width="32.26" height="32.26" fill="#3F3D56"/><rect x="645.1428571428572" y="129.02857142857144" width="64.51428571428572" height="64.51428571428572" fill="#ffffff"/><rect x="645.14" y="129.03" width="32.26" height="32.26" fill="#3F3D56"/><path d="M 645.14 161.29 A 32.26 32.26 0 0 1  677.4 129.03 L 677.4 161.29" fill="#3F3D56"/><rect x="677.4" y="129.03" width="32.26" height="32.26" fill="#6C63FF"/><path d="M 677.4 129.03 A 32.26 32.26 0 0 1 709.66 161.29 L 677.4 161.29" fill="#3F3D56"/><rect x="645.14" y="161.29" width="32.26" height="32.26" fill="#6C63FF"/><path d="M 645.14 161.29 A 32.26 32.26 0 0 0 677.4 193.54999999999998 L 677.4 161.29" fill="#3F3D56"/><rect x="677.4" y="161.29" width="32.26" height="32.26" fill="#3F3D56"/><path d="M 677.4 193.54999999999998 A 32.26 32.26 0 0 0 709.66 161.29 L 677.4 161.29" fill="#3F3D56"/><rect x="709.66" y="129.03" width="64.51" height="64.51" fill="#3F3D56"/><path d="M 709.66 193.54000000000002 A 64.51 64.51 0 0 0 774.17 129.03 L 709.66 129.03" fill="#6C63FF"/><rect x="0" y="193.54285714285714" width="64.51428571428572" height="64.51428571428572" fill="#ffffff"/><rect x="0" y="193.54" width="32.26" height="32.26" fill="#3F3D56"/><path d="M 0 193.54 A 32.26 32.26 0 0 0 32.26 225.79999999999998 L 32.26 193.54" fill="#3F3D56"/><rect x="32.26" y="193.54" width="32.26" height="32.26" fill="#3F3D56"/><path d="M 32.26 225.79999999999998 A 32.26 32.26 0 0 0 64.52 193.54 L 32.26 193.54" fill="#6C63FF"/><rect x="0" y="225.8" width="32.26" height="32.26" fill="#6C63FF"/><path d="M 0 258.06 A 32.26 32.26 0 0 1  32.26 225.8 L 32.26 258.06" fill="#6C63FF"/><rect x="32.26" y="225.8" width="32.26" height="32.26" fill="#6C63FF"/><path d="M 32.26 225.8 A 32.26 32.26 0 0 1 64.52 258.06 L 32.26 258.06" fill="#6C63FF"/><rect x="64.51428571428572" y="193.54285714285714" width="64.51428571428572" height="64.51428571428572" fill="#ffffff"/><rect x="64.51" y="193.54" width="32.26" height="32.26" fill="#6C63FF"/><polygon points="96.77000000000001,193.54 96.77000000000001,225.79999999999998 64.51,225.79999999999998" fill="#6C63FF"/><rect x="96.77" y="193.54" width="32.26" height="32.26" fill="#6C63FF"/><polygon points="96.77,193.54 129.03,225.79999999999998 96.77,225.79999999999998" fill="#6C63FF"/><rect x="64.51" y="225.8" width="32.26" height="32.26" fill="#3F3D56"/><polygon points="64.51,225.8 96.77000000000001,225.8 64.51,258.06" fill="#6C63FF"/><rect x="96.77" y="225.8" width="32.26" height="32.26" fill="#3F3D56"/><polygon points="96.77,225.8 129.03,225.8 129.03,258.06" fill="#6C63FF"/><rect x="129.02857142857144" y="193.54285714285714" width="64.51428571428572" height="64.51428571428572" fill="#ffffff"/><rect x="129.03" y="193.54" width="32.26" height="32.26" fill="#6C63FF"/><path d="M 129.03 193.54 A 32.26 32.26 0 0 1 161.29 225.79999999999998 L 129.03 225.79999999999998" fill="#3F3D56"/><rect x="161.29" y="193.54" width="32.26" height="32.26" fill="#3F3D56"/><path d="M 161.29 225.79999999999998 A 32.26 32.26 0 0 1  193.54999999999998 193.54 L 193.54999999999998 225.79999999999998" fill="#3F3D56"/><rect x="129.03" y="225.8" width="32.26" height="32.26" fill="#3F3D56"/><path d="M 129.03 258.06 A 32.26 32.26 0 0 0 161.29 225.8 L 129.03 225.8" fill="#6C63FF"/><rect x="161.29" y="225.8" width="32.26" height="32.26" fill="#6C63FF"/><path d="M 161.29 225.8 A 32.26 32.26 0 0 0 193.54999999999998 258.06 L 193.54999999999998 225.8" fill="#6C63FF"/><rect x="193.54285714285714" y="193.54285714285714" width="64.51428571428572" height="64.51428571428572" fill="#ffffff"/><rect x="193.54" y="193.54" width="32.26" height="32.26" fill="#3F3D56"/><path d="M 193.54 225.79999999999998 A 32.26 32.26 0 0 0 225.79999999999998 193.54 L 193.54 193.54" fill="#3F3D56"/><rect x="225.8" y="193.54" width="32.26" height="32.26" fill="#3F3D56"/><path d="M 225.8 193.54 A 32.26 32.26 0 0 0 258.06 225.79999999999998 L 258.06 193.54" fill="#6C63FF"/><rect x="193.54" y="225.8" width="32.26" height="32.26" fill="#6C63FF"/><path d="M 193.54 225.8 A 32.26 32.26 0 0 1 225.79999999999998 258.06 L 193.54 258.06" fill="#6C63FF"/><rect x="225.8" y="225.8" width="32.26" height="32.26" fill="#3F3D56"/><path d="M 225.8 258.06 A 32.26 32.26 0 0 1  258.06 225.8 L 258.06 258.06" fill="#3F3D56"/><rect x="258.0571428571429" y="193.54285714285714" width="64.51428571428572" height="64.51428571428572" fill="#ffffff"/><rect x="258.06" y="193.54" width="32.26" height="32.26" fill="#3F3D56"/><path d="M 258.06 193.54 A 32.26 32.26 0 0 0 290.32 225.79999999999998 L 290.32 193.54" fill="#3F3D56"/><rect x="290.31" y="193.54" width="32.26" height="32.26" fill="#3F3D56"/><path d="M 290.31 225.79999999999998 A 32.26 32.26 0 0 0 322.57 193.54 L 290.31 193.54" fill="#6C63FF"/><rect x="258.06" y="225.8" width="32.26" height="32.26" fill="#3F3D56"/><path d="M 258.06 258.06 A 32.26 32.26 0 0 1  290.32 225.8 L 290.32 258.06" fill="#3F3D56"/><rect x="290.31" y="225.8" width="32.26" height="32.26" fill="#6C63FF"/><path d="M 290.31 225.8 A 32.26 32.26 0 0 1 322.57 258.06 L 290.31 258.06" fill="#3F3D56"/><rect x="322.5714285714286" y="193.54285714285714" width="64.51428571428572" height="64.51428571428572" fill="#ffffff"/><rect x="322.57" y="193.54" width="32.26" height="32.26" fill="#3F3D56"/><path d="M 322.57 225.79999999999998 A 32.26 32.26 0 0 1  354.83 193.54 L 354.83 225.79999999999998" fill="#3F3D56"/><rect x="354.83" y="193.54" width="32.26" height="32.26" fill="#3F3D56"/><path d="M 354.83 193.54 A 32.26 32.26 0 0 1 387.09 225.79999999999998 L 354.83 225.79999999999998" fill="#6C63FF"/><rect x="322.57" y="225.8" width="32.26" height="32.26" fill="#3F3D56"/><path d="M 322.57 225.8 A 32.26 32.26 0 0 0 354.83 258.06 L 354.83 225.8" fill="#6C63FF"/><rect x="354.83" y="225.8" width="32.26" height="32.26" fill="#6C63FF"/><path d="M 354.83 258.06 A 32.26 32.26 0 0 0 387.09 225.8 L 354.83 225.8" fill="#3F3D56"/><rect x="387.09" y="193.54" width="64.51" height="64.51" fill="#3F3D56"/><polygon points="387.09,193.54 451.59999999999997,258.05 387.09,258.05" fill="#6C63FF"/><rect x="451.6" y="193.54" width="64.51" height="64.51" fill="#6C63FF"/><polygon points="516.11,193.54 516.11,258.05 451.6,258.05" fill="#3F3D56"/><rect x="516.11" y="193.54" width="64.51" height="64.51" fill="#3F3D56"/><polygon points="516.11,193.54 580.62,193.54 516.11,258.05" fill="#6C63FF"/><rect x="580.6285714285715" y="193.54285714285714" width="64.51428571428572" height="64.51428571428572" fill="#ffffff"/><rect x="580.63" y="193.54" width="32.26" height="32.26" fill="#3F3D56"/><polygon points="612.89,193.54 612.89,225.79999999999998 580.63,225.79999999999998" fill="#6C63FF"/><rect x="612.89" y="193.54" width="32.26" height="32.26" fill="#6C63FF"/><polygon points="612.89,193.54 645.15,225.79999999999998 612.89,225.79999999999998" fill="#6C63FF"/><rect x="580.63" y="225.8" width="32.26" height="32.26" fill="#6C63FF"/><polygon points="580.63,225.8 612.89,225.8 612.89,258.06" fill="#3F3D56"/><rect x="612.89" y="225.8" width="32.26" height="32.26" fill="#6C63FF"/><polygon points="612.89,225.8 645.15,225.8 612.89,258.06" fill="#3F3D56"/><rect x="645.1428571428572" y="193.54285714285714" width="64.51428571428572" height="64.51428571428572" fill="#ffffff"/><rect x="645.14" y="193.54" width="32.26" height="32.26" fill="#3F3D56"/><circle cx="661.27" cy="209.67" r="16.13" fill="#3F3D56"/><rect x="677.4" y="193.54" width="32.26" height="32.26" fill="#6C63FF"/><rect x="677.4" y="193.54" width="32.26" height="32.26" fill="#3F3D56"/><rect x="645.14" y="225.8" width="32.26" height="32.26" fill="#3F3D56"/><circle cx="661.27" cy="241.93" r="16.13" fill="#3F3D56"/><rect x="677.4" y="225.8" width="32.26" height="32.26" fill="#6C63FF"/><rect x="677.4" y="225.8" width="32.26" height="32.26" fill="#3F3D56"/><rect x="709.657142857143" y="193.54285714285714" width="64.51428571428572" height="64.51428571428572" fill="#ffffff"/><rect x="709.66" y="193.54" width="32.26" height="32.26" fill="#6C63FF"/><path d="M 709.66 225.79999999999998 A 32.26 32.26 0 0 0 741.92 193.54 L 709.66 193.54" fill="#6C63FF"/><rect x="741.91" y="193.54" width="32.26" height="32.26" fill="#6C63FF"/><path d="M 741.91 193.54 A 32.26 32.26 0 0 0 774.17 225.79999999999998 L 774.17 193.54" fill="#6C63FF"/><rect x="709.66" y="225.8" width="32.26" height="32.26" fill="#3F3D56"/><path d="M 709.66 225.8 A 32.26 32.26 0 0 1 741.92 258.06 L 709.66 258.06" fill="#3F3D56"/><rect x="741.91" y="225.8" width="32.26" height="32.26" fill="#6C63FF"/><path d="M 741.91 258.06 A 32.26 32.26 0 0 1  774.17 225.8 L 774.17 258.06" fill="#6C63FF"/><rect x="0" y="258.06" width="64.51" height="64.51" fill="#6C63FF"/><rect x="0" y="258.06" width="64.51" height="64.51" fill="#3F3D56"/><rect x="64.51" y="258.06" width="64.51" height="64.51" fill="#3F3D56"/><polygon points="64.51,258.06 129.02,322.57 64.51,322.57" fill="#3F3D56"/><rect x="129.03" y="258.06" width="64.51" height="64.51" fill="#6C63FF"/><path d="M 129.03 258.06 A 64.51 64.51 0 0 1 193.54000000000002 322.57 L 129.03 322.57" fill="#6C63FF"/><rect x="193.54285714285714" y="258.0571428571429" width="64.51428571428572" height="64.51428571428572" fill="#ffffff"/><rect x="193.54" y="258.06" width="32.26" height="32.26" fill="#6C63FF"/><path d="M 193.54 290.32 A 32.26 32.26 0 0 1  225.79999999999998 258.06 L 225.79999999999998 290.32" fill="#6C63FF"/><rect x="225.8" y="258.06" width="32.26" height="32.26" fill="#6C63FF"/><path d="M 225.8 258.06 A 32.26 32.26 0 0 1 258.06 290.32 L 225.8 290.32" fill="#6C63FF"/><rect x="193.54" y="290.31" width="32.26" height="32.26" fill="#6C63FF"/><path d="M 193.54 290.31 A 32.26 32.26 0 0 0 225.79999999999998 322.57 L 225.79999999999998 290.31" fill="#3F3D56"/><rect x="225.8" y="290.31" width="32.26" height="32.26" fill="#3F3D56"/><path d="M 225.8 322.57 A 32.26 32.26 0 0 0 258.06 290.31 L 225.8 290.31" fill="#6C63FF"/><rect x="258.06" y="258.06" width="64.51" height="64.51" fill="#3F3D56"/><rect x="258.06" y="258.06" width="64.51" height="64.51" fill="#3F3D56"/><rect x="322.5714285714286" y="258.0571428571429" width="64.51428571428572" height="64.51428571428572" fill="#ffffff"/><rect x="322.57" y="258.06" width="32.26" height="32.26" fill="#6C63FF"/><polygon points="354.83,258.06 354.83,290.32 322.57,290.32" fill="#3F3D56"/><rect x="354.83" y="258.06" width="32.26" height="32.26" fill="#3F3D56"/><polygon points="354.83,258.06 387.09,258.06 354.83,290.32" fill="#3F3D56"/><rect x="322.57" y="290.31" width="32.26" height="32.26" fill="#3F3D56"/><polygon points="322.57,290.31 354.83,290.31 354.83,322.57" fill="#6C63FF"/><rect x="354.83" y="290.31" width="32.26" height="32.26" fill="#3F3D56"/><polygon points="354.83,290.31 387.09,322.57 354.83,322.57" fill="#3F3D56"/><rect x="387.0857142857143" y="258.0571428571429" width="64.51428571428572" height="64.51428571428572" fill="#ffffff"/><rect x="387.09" y="258.06" width="32.26" height="32.26" fill="#3F3D56"/><path d="M 387.09 258.06 A 32.26 32.26 0 0 0 419.34999999999997 290.32 L 419.34999999999997 258.06" fill="#6C63FF"/><rect x="419.34" y="258.06" width="32.26" height="32.26" fill="#3F3D56"/><path d="M 419.34 290.32 A 32.26 32.26 0 0 0 451.59999999999997 258.06 L 419.34 258.06" fill="#6C63FF"/><rect x="387.09" y="290.31" width="32.26" height="32.26" fill="#3F3D56"/><path d="M 387.09 322.57 A 32.26 32.26 0 0 1  419.34999999999997 290.31 L 419.34999999999997 322.57" fill="#6C63FF"/><rect x="419.34" y="290.31" width="32.26" height="32.26" fill="#6C63FF"/><path d="M 419.34 290.31 A 32.26 32.26 0 0 1 451.59999999999997 322.57 L 419.34 322.57" fill="#6C63FF"/><rect x="451.6" y="258.0571428571429" width="64.51428571428572" height="64.51428571428572" fill="#ffffff"/><rect x="451.6" y="258.06" width="32.26" height="32.26" fill="#3F3D56"/><polygon points="483.86,258.06 483.86,290.32 451.6,290.32" fill="#6C63FF"/><rect x="483.86" y="258.06" width="32.26" height="32.26" fill="#3F3D56"/><polygon points="483.86,258.06 516.12,290.32 483.86,290.32" fill="#3F3D56"/><rect x="451.6" y="290.31" width="32.26" height="32.26" fill="#3F3D56"/><polygon points="451.6,290.31 483.86,290.31 451.6,322.57" fill="#6C63FF"/><rect x="483.86" y="290.31" width="32.26" height="32.26" fill="#3F3D56"/><polygon points="483.86,290.31 516.12,290.31 516.12,322.57" fill="#3F3D56"/><rect x="516.1142857142858" y="258.0571428571429" width="64.51428571428572" height="64.51428571428572" fill="#ffffff"/><rect x="516.11" y="258.06" width="32.26" height="32.26" fill="#6C63FF"/><path d="M 516.11 258.06 A 32.26 32.26 0 0 1 548.37 290.32 L 516.11 290.32" fill="#6C63FF"/><rect x="548.37" y="258.06" width="32.26" height="32.26" fill="#3F3D56"/><path d="M 548.37 290.32 A 32.26 32.26 0 0 1  580.63 258.06 L 580.63 290.32" fill="#6C63FF"/><rect x="516.11" y="290.31" width="32.26" height="32.26" fill="#6C63FF"/><path d="M 516.11 322.57 A 32.26 32.26 0 0 0 548.37 290.31 L 516.11 290.31" fill="#6C63FF"/><rect x="548.37" y="290.31" width="32.26" height="32.26" fill="#6C63FF"/><path d="M 548.37 290.31 A 32.26 32.26 0 0 0 580.63 322.57 L 580.63 290.31" fill="#6C63FF"/><rect x="580.6285714285715" y="258.0571428571429" width="64.51428571428572" height="64.51428571428572" fill="#ffffff"/><rect x="580.63" y="258.06" width="32.26" height="32.26" fill="#3F3D56"/><polygon points="612.89,258.06 612.89,290.32 580.63,290.32" fill="#6C63FF"/><rect x="612.89" y="258.06" width="32.26" height="32.26" fill="#6C63FF"/><polygon points="612.89,258.06 645.15,258.06 612.89,290.32" fill="#3F3D56"/><rect x="580.63" y="290.31" width="32.26" height="32.26" fill="#6C63FF"/><polygon points="580.63,290.31 612.89,290.31 612.89,322.57" fill="#6C63FF"/><rect x="612.89" y="290.31" width="32.26" height="32.26" fill="#6C63FF"/><polygon points="612.89,290.31 645.15,322.57 612.89,322.57" fill="#6C63FF"/><rect x="645.1428571428572" y="258.0571428571429" width="64.51428571428572" height="64.51428571428572" fill="#ffffff"/><rect x="645.14" y="258.06" width="32.26" height="32.26" fill="#3F3D56"/><circle cx="661.27" cy="274.19" r="16.13" fill="#6C63FF"/><rect x="677.4" y="258.06" width="32.26" height="32.26" fill="#3F3D56"/><rect x="677.4" y="258.06" width="32.26" height="32.26" fill="#6C63FF"/><rect x="645.14" y="290.31" width="32.26" height="32.26" fill="#6C63FF"/><circle cx="661.27" cy="306.44" r="16.13" fill="#6C63FF"/><rect x="677.4" y="290.31" width="32.26" height="32.26" fill="#3F3D56"/><rect x="677.4" y="290.31" width="32.26" height="32.26" fill="#6C63FF"/><rect x="709.66" y="258.06" width="64.51" height="64.51" fill="#3F3D56"/><path d="M 709.66 322.57 A 64.51 64.51 0 0 0 774.17 258.06 L 709.66 258.06" fill="#6C63FF"/><rect x="0" y="322.57" width="64.51" height="64.51" fill="#3F3D56"/><path d="M 0 322.57 A 64.51 64.51 0 0 1 64.51 387.08 L 0 387.08" fill="#6C63FF"/><rect x="64.51428571428572" y="322.5714285714286" width="64.51428571428572" height="64.51428571428572" fill="#ffffff"/><rect x="64.51" y="322.57" width="32.26" height="32.26" fill="#3F3D56"/><path d="M 64.51 322.57 A 32.26 32.26 0 0 0 96.77000000000001 354.83 L 96.77000000000001 322.57" fill="#6C63FF"/><rect x="96.77" y="322.57" width="32.26" height="32.26" fill="#3F3D56"/><path d="M 96.77 354.83 A 32.26 32.26 0 0 0 129.03 322.57 L 96.77 322.57" fill="#6C63FF"/><rect x="64.51" y="354.83" width="32.26" height="32.26" fill="#6C63FF"/><path d="M 64.51 387.09 A 32.26 32.26 0 0 1  96.77000000000001 354.83 L 96.77000000000001 387.09" fill="#6C63FF"/><rect x="96.77" y="354.83" width="32.26" height="32.26" fill="#3F3D56"/><path d="M 96.77 354.83 A 32.26 32.26 0 0 1 129.03 387.09 L 96.77 387.09" fill="#3F3D56"/><rect x="129.02857142857144" y="322.5714285714286" width="64.51428571428572" height="64.51428571428572" fill="#ffffff"/><rect x="129.03" y="322.57" width="32.26" height="32.26" fill="#6C63FF"/><path d="M 129.03 322.57 A 32.26 32.26 0 0 1 161.29 354.83 L 129.03 354.83" fill="#6C63FF"/><rect x="161.29" y="322.57" width="32.26" height="32.26" fill="#6C63FF"/><path d="M 161.29 354.83 A 32.26 32.26 0 0 1  193.54999999999998 322.57 L 193.54999999999998 354.83" fill="#6C63FF"/><rect x="129.03" y="354.83" width="32.26" height="32.26" fill="#3F3D56"/><path d="M 129.03 387.09 A 32.26 32.26 0 0 0 161.29 354.83 L 129.03 354.83" fill="#6C63FF"/><rect x="161.29" y="354.83" width="32.26" height="32.26" fill="#6C63FF"/><path d="M 161.29 354.83 A 32.26 32.26 0 0 0 193.54999999999998 387.09 L 193.54999999999998 354.83" fill="#6C63FF"/><rect x="193.54285714285714" y="322.5714285714286" width="64.51428571428572" height="64.51428571428572" fill="#ffffff"/><rect x="193.54" y="322.57" width="32.26" height="32.26" fill="#6C63FF"/><path d="M 193.54 354.83 A 32.26 32.26 0 0 0 225.79999999999998 322.57 L 193.54 322.57" fill="#6C63FF"/><rect x="225.8" y="322.57" width="32.26" height="32.26" fill="#6C63FF"/><path d="M 225.8 322.57 A 32.26 32.26 0 0 0 258.06 354.83 L 258.06 322.57" fill="#6C63FF"/><rect x="193.54" y="354.83" width="32.26" height="32.26" fill="#6C63FF"/><path d="M 193.54 354.83 A 32.26 32.26 0 0 1 225.79999999999998 387.09 L 193.54 387.09" fill="#6C63FF"/><rect x="225.8" y="354.83" width="32.26" height="32.26" fill="#6C63FF"/><path d="M 225.8 387.09 A 32.26 32.26 0 0 1  258.06 354.83 L 258.06 387.09" fill="#6C63FF"/><rect x="258.06" y="322.57" width="64.51" height="64.51" fill="#6C63FF"/><rect x="258.06" y="322.57" width="64.51" height="64.51" fill="#3F3D56"/><rect x="322.57" y="322.57" width="64.51" height="64.51" fill="#6C63FF"/><path d="M 322.57 322.57 A 64.51 64.51 0 0 1  387.08 387.08 L 322.57 322.57 A 64.51 64.51 0 0 0 387.08 387.08" fill="#3F3D56"/><rect x="387.09" y="322.57" width="64.51" height="64.51" fill="#3F3D56"/><path d="M 387.09 387.08 A 64.51 64.51 0 0 1  451.59999999999997 322.57 L 451.59999999999997 387.08" fill="#3F3D56"/><rect x="451.6" y="322.5714285714286" width="64.51428571428572" height="64.51428571428572" fill="#ffffff"/><rect x="451.6" y="322.57" width="32.26" height="32.26" fill="#6C63FF"/><path d="M 451.6 354.83 A 32.26 32.26 0 0 0 483.86 322.57 L 451.6 322.57" fill="#3F3D56"/><rect x="483.86" y="322.57" width="32.26" height="32.26" fill="#6C63FF"/><path d="M 483.86 322.57 A 32.26 32.26 0 0 0 516.12 354.83 L 516.12 322.57" fill="#3F3D56"/><rect x="451.6" y="354.83" width="32.26" height="32.26" fill="#3F3D56"/><path d="M 451.6 354.83 A 32.26 32.26 0 0 1 483.86 387.09 L 451.6 387.09" fill="#3F3D56"/><rect x="483.86" y="354.83" width="32.26" height="32.26" fill="#3F3D56"/><path d="M 483.86 387.09 A 32.26 32.26 0 0 1  516.12 354.83 L 516.12 387.09" fill="#3F3D56"/><rect x="516.11" y="322.57" width="64.51" height="64.51" fill="#6C63FF"/><path d="M 516.11 387.08 A 64.51 64.51 0 0 0 580.62 322.57 L 516.11 322.57" fill="#3F3D56"/><rect x="580.63" y="322.57" width="64.51" height="64.51" fill="#6C63FF"/><path d="M 580.63 322.57 A 64.51 64.51 0 0 0 645.14 387.08 L 645.14 322.57" fill="#6C63FF"/><rect x="645.14" y="322.57" width="64.51" height="64.51" fill="#3F3D56"/><path d="M 645.14 322.57 A 64.51 64.51 0 0 1  709.65 387.08 L 645.14 322.57 A 64.51 64.51 0 0 0 709.65 387.08" fill="#6C63FF"/><rect x="709.66" y="322.57" width="64.51" height="64.51" fill="#3F3D56"/><path d="M 709.66 387.08 A 64.51 64.51 0 0 1  774.17 322.57 L 709.66 387.08 A 64.51 64.51 0 0 0 774.17 322.57" fill="#3F3D56"/><rect x="0" y="387.09" width="64.51" height="64.51" fill="#3F3D56"/><path d="M 0 387.09 A 64.51 64.51 0 0 1  64.51 451.59999999999997 L 0 387.09 A 64.51 64.51 0 0 0 64.51 451.59999999999997" fill="#6C63FF"/><rect x="64.51" y="387.09" width="64.51" height="64.51" fill="#6C63FF"/><polygon points="64.51,387.09 129.02,451.59999999999997 64.51,451.59999999999997" fill="#3F3D56"/><rect x="129.03" y="387.09" width="64.51" height="64.51" fill="#6C63FF"/><polygon points="193.54000000000002,387.09 193.54000000000002,451.59999999999997 129.03,451.59999999999997" fill="#6C63FF"/><rect x="193.54285714285714" y="387.0857142857143" width="64.51428571428572" height="64.51428571428572" fill="#ffffff"/><rect x="193.54" y="387.09" width="32.26" height="32.26" fill="#3F3D56"/><path d="M 193.54 419.34999999999997 A 32.26 32.26 0 0 1  225.79999999999998 387.09 L 225.79999999999998 419.34999999999997" fill="#3F3D56"/><rect x="225.8" y="387.09" width="32.26" height="32.26" fill="#3F3D56"/><path d="M 225.8 387.09 A 32.26 32.26 0 0 1 258.06 419.34999999999997 L 225.8 419.34999999999997" fill="#3F3D56"/><rect x="193.54" y="419.34" width="32.26" height="32.26" fill="#3F3D56"/><path d="M 193.54 419.34 A 32.26 32.26 0 0 0 225.79999999999998 451.59999999999997 L 225.79999999999998 419.34" fill="#6C63FF"/><rect x="225.8" y="419.34" width="32.26" height="32.26" fill="#3F3D56"/><path d="M 225.8 451.59999999999997 A 32.26 32.26 0 0 0 258.06 419.34 L 225.8 419.34" fill="#3F3D56"/><rect x="258.06" y="387.09" width="64.51" height="64.51" fill="#3F3D56"/><path d="M 258.06 387.09 A 64.51 64.51 0 0 0 322.57 451.59999999999997 L 322.57 387.09" fill="#3F3D56"/><rect x="322.5714285714286" y="387.0857142857143" width="64.51428571428572" height="64.51428571428572" fill="#ffffff"/><rect x="322.57" y="387.09" width="32.26" height="32.26" fill="#6C63FF"/><path d="M 322.57 419.34999999999997 A 32.26 32.26 0 0 1  354.83 387.09 L 354.83 419.34999999999997" fill="#3F3D56"/><rect x="354.83" y="387.09" width="32.26" height="32.26" fill="#3F3D56"/><path d="M 354.83 387.09 A 32.26 32.26 0 0 1 387.09 419.34999999999997 L 354.83 419.34999999999997" fill="#6C63FF"/><rect x="322.57" y="419.34" width="32.26" height="32.26" fill="#3F3D56"/><path d="M 322.57 419.34 A 32.26 32.26 0 0 0 354.83 451.59999999999997 L 354.83 419.34" fill="#6C63FF"/><rect x="354.83" y="419.34" width="32.26" height="32.26" fill="#3F3D56"/><path d="M 354.83 451.59999999999997 A 32.26 32.26 0 0 0 387.09 419.34 L 354.83 419.34" fill="#3F3D56"/><rect x="387.0857142857143" y="387.0857142857143" width="64.51428571428572" height="64.51428571428572" fill="#ffffff"/><rect x="387.09" y="387.09" width="32.26" height="32.26" fill="#6C63FF"/><path d="M 387.09 419.34999999999997 A 32.26 32.26 0 0 1 419.34999999999997 387.09 L 419.34999999999997 395.155 A 24.195 24.195 0 0 0 395.155 419.34999999999997" fill="#6C63FF"/><rect x="419.34" y="387.09" width="32.26" height="32.26" fill="#3F3D56"/><path d="M 419.34 387.09 A 32.26 32.26 0 0 1 451.59999999999997 419.34999999999997 L 443.53499999999997 419.34999999999997 A 24.195 24.195 0 0 0 419.34 395.155" fill="#6C63FF"/><rect x="387.09" y="419.34" width="32.26" height="32.26" fill="#6C63FF"/><path d="M 387.09 419.34 A 32.26 32.26 0 0 0 419.34999999999997 451.59999999999997 L 419.34999999999997 443.53499999999997 A 24.195 24.195 0 0 1 395.155 419.34" fill="#6C63FF"/><rect x="419.34" y="419.34" width="32.26" height="32.26" fill="#6C63FF"/><path d="M 419.34 451.59999999999997 A 32.26 32.26 0 0 0 451.59999999999997 419.34 L 443.53499999999997 419.34 A 24.195 24.195 0 0 1 419.34 443.53499999999997" fill="#6C63FF"/><rect x="451.6" y="387.0857142857143" width="64.51428571428572" height="64.51428571428572" fill="#ffffff"/><rect x="451.6" y="387.09" width="32.26" height="32.26" fill="#3F3D56"/><polygon points="483.86,387.09 483.86,419.34999999999997 451.6,419.34999999999997" fill="#3F3D56"/><rect x="483.86" y="387.09" width="32.26" height="32.26" fill="#6C63FF"/><polygon points="483.86,387.09 516.12,387.09 483.86,419.34999999999997" fill="#3F3D56"/><rect x="451.6" y="419.34" width="32.26" height="32.26" fill="#6C63FF"/><polygon points="451.6,419.34 483.86,419.34 483.86,451.59999999999997" fill="#3F3D56"/><rect x="483.86" y="419.34" width="32.26" height="32.26" fill="#3F3D56"/><polygon points="483.86,419.34 516.12,451.59999999999997 483.86,451.59999999999997" fill="#6C63FF"/><rect x="516.1142857142858" y="387.0857142857143" width="64.51428571428572" height="64.51428571428572" fill="#ffffff"/><rect x="516.11" y="387.09" width="32.26" height="32.26" fill="#3F3D56"/><polygon points="548.37,387.09 548.37,419.34999999999997 516.11,419.34999999999997" fill="#6C63FF"/><rect x="548.37" y="387.09" width="32.26" height="32.26" fill="#3F3D56"/><polygon points="548.37,387.09 580.63,419.34999999999997 548.37,419.34999999999997" fill="#3F3D56"/><rect x="516.11" y="419.34" width="32.26" height="32.26" fill="#3F3D56"/><polygon points="516.11,419.34 548.37,419.34 516.11,451.59999999999997" fill="#6C63FF"/><rect x="548.37" y="419.34" width="32.26" height="32.26" fill="#6C63FF"/><polygon points="548.37,419.34 580.63,419.34 580.63,451.59999999999997" fill="#6C63FF"/><rect x="580.6285714285715" y="387.0857142857143" width="64.51428571428572" height="64.51428571428572" fill="#ffffff"/><rect x="580.63" y="387.09" width="32.26" height="32.26" fill="#3F3D56"/><path d="M 580.63 387.09 A 32.26 32.26 0 0 1 612.89 419.34999999999997 L 580.63 419.34999999999997" fill="#6C63FF"/><rect x="612.89" y="387.09" width="32.26" height="32.26" fill="#6C63FF"/><path d="M 612.89 419.34999999999997 A 32.26 32.26 0 0 1  645.15 387.09 L 645.15 419.34999999999997" fill="#6C63FF"/><rect x="580.63" y="419.34" width="32.26" height="32.26" fill="#3F3D56"/><path d="M 580.63 451.59999999999997 A 32.26 32.26 0 0 0 612.89 419.34 L 580.63 419.34" fill="#3F3D56"/><rect x="612.89" y="419.34" width="32.26" height="32.26" fill="#3F3D56"/><path d="M 612.89 419.34 A 32.26 32.26 0 0 0 645.15 451.59999999999997 L 645.15 419.34" fill="#3F3D56"/><rect x="645.14" y="387.09" width="64.51" height="64.51" fill="#3F3D56"/><path d="M 645.14 387.09 A 64.51 64.51 0 0 1 709.65 451.59999999999997 L 645.14 451.59999999999997" fill="#3F3D56"/><rect x="709.657142857143" y="387.0857142857143" width="64.51428571428572" height="64.51428571428572" fill="#ffffff"/><rect x="709.66" y="387.09" width="32.26" height="32.26" fill="#3F3D56"/><circle cx="725.79" cy="403.21999999999997" r="16.13" fill="#3F3D56"/><rect x="741.91" y="387.09" width="32.26" height="32.26" fill="#3F3D56"/><rect x="741.91" y="387.09" width="32.26" height="32.26" fill="#3F3D56"/><rect x="709.66" y="419.34" width="32.26" height="32.26" fill="#6C63FF"/><circle cx="725.79" cy="435.46999999999997" r="16.13" fill="#6C63FF"/><rect x="741.91" y="419.34" width="32.26" height="32.26" fill="#6C63FF"/><rect x="741.91" y="419.34" width="32.26" height="32.26" fill="#6C63FF"/></g></svg>